HIERARCHY
ROOT Hips
{
	OFFSET 0.000000 0.000000 0.000000
	CHANNELS 6 Xposition Yposition Zposition Zrotation Yrotation Xrotation 
	JOINT LHipJoint
	{
		OFFSET 0.000000 0.000000 0.000000
		CHANNELS 3 Zrotation Yrotation Xrotation
		JOINT LeftUpLeg
		{
			OFFSET 1.363060 -1.794630 0.839290
			CHANNELS 3 Zrotation Yrotation Xrotation
			JOINT LeftLeg
			{
				OFFSET 2.448110 -6.726130 0.000000
				CHANNELS 3 Zrotation Yrotation Xrotation
				JOINT LeftFoot
				{
					OFFSET 2.562200 -7.039590 0.000000
					CHANNELS 3 Zrotation Yrotation Xrotation
					JOINT LeftToeBase
					{
						OFFSET 0.157640 -0.433110 2.322550
						CHANNELS 3 Zrotation Yrotation Xrotation
						End Site
						{
							OFFSET 0.000000 0.000000 0.000000
						}
					}
				}
			}
		}
	}
	JOINT RHipJoint
	{
		OFFSET 0.000000 0.000000 0.000000
		CHANNELS 3 Zrotation Yrotation Xrotation
		JOINT RightUpLeg
		{
			OFFSET -1.305520 -1.794630 0.839290
			CHANNELS 3 Zrotation Yrotation Xrotation
			JOINT RightLeg
			{
				OFFSET -2.542530 -6.985550 0.000000
				CHANNELS 3 Zrotation Yrotation Xrotation
				JOINT RightFoot
				{
					OFFSET -2.568260 -7.056230 0.000000
					CHANNELS 3 Zrotation Yrotation Xrotation
					JOINT RightToeBase
					{
						OFFSET -0.164730 -0.452590 2.363150
						CHANNELS 3 Zrotation Yrotation Xrotation
						End Site
						{
							OFFSET 0.000000 0.000000 0.000000
						}
					}
				}
			}
		}
	}
	JOINT LowerBack
	{
		OFFSET 0.000000 0.000000 0.000000
		CHANNELS 3 Zrotation Yrotation Xrotation
		JOINT Spine
		{
			OFFSET 0.028270 2.035590 -0.193380
			CHANNELS 3 Zrotation Yrotation Xrotation
			JOINT Spine1
			{
				OFFSET 0.056720 2.048850 -0.042750
				CHANNELS 3 Zrotation Yrotation Xrotation
				JOINT Neck
				{
					OFFSET 0.000000 0.000000 0.000000
					CHANNELS 3 Zrotation Yrotation Xrotation
					JOINT Neck1
					{
						OFFSET -0.054170 1.746240 0.172020
						CHANNELS 3 Zrotation Yrotation Xrotation
						JOINT Head
						{
							OFFSET 0.104070 1.761360 -0.123970
							CHANNELS 3 Zrotation Yrotation Xrotation
							End Site
							{
								OFFSET 0.000000 0.000000 0.000000
							}
						}
					}
				}
				JOINT LeftShoulder
				{
					OFFSET 0.000000 0.000000 0.000000
					CHANNELS 3 Zrotation Yrotation Xrotation
					JOINT LeftArm
					{
						OFFSET 3.362410 1.200890 -0.311210
						CHANNELS 3 Zrotation Yrotation Xrotation
						JOINT LeftForeArm
						{
							OFFSET 4.983000 -0.000000 -0.000000
							CHANNELS 3 Zrotation Yrotation Xrotation
							JOINT LeftHand
							{
								OFFSET 3.483560 -0.000000 -0.000000
								CHANNELS 3 Zrotation Yrotation Xrotation
								JOINT LeftFingerBase
								{
									OFFSET 0.000000 0.000000 0.000000
									CHANNELS 3 Zrotation Yrotation Xrotation
									JOINT LeftHandIndex1
									{
										OFFSET 0.715260 -0.000000 -0.000000
										CHANNELS 3 Zrotation Yrotation Xrotation
										End Site
										{
											OFFSET 0.000000 0.000000 0.000000
										}
									}
								}
								JOINT LThumb
								{
									OFFSET 0.000000 0.000000 0.000000
									CHANNELS 3 Zrotation Yrotation Xrotation
									End Site
									{
										OFFSET 0.000000 0.000000 0.000000
									}
								}
							}
						}
					}
				}
				JOINT RightShoulder
				{
					OFFSET 0.000000 0.000000 0.000000
					CHANNELS 3 Zrotation Yrotation Xrotation
					JOINT RightArm
					{
						OFFSET -3.136600 1.374050 -0.404650
						CHANNELS 3 Zrotation Yrotation Xrotation
						JOINT RightForeArm
						{
							OFFSET -5.241900 -0.000000 -0.000000
							CHANNELS 3 Zrotation Yrotation Xrotation
							JOINT RightHand
							{
								OFFSET -3.444170 -0.000000 -0.000000
								CHANNELS 3 Zrotation Yrotation Xrotation
								JOINT RightFingerBase
								{
									OFFSET 0.000000 0.000000 0.000000
									CHANNELS 3 Zrotation Yrotation Xrotation
									JOINT RightHandIndex1
									{
										OFFSET -0.622530 -0.000000 -0.000000
										CHANNELS 3 Zrotation Yrotation Xrotation
										End Site
										{
											OFFSET 0.000000 0.000000 0.000000
										}
									}
								}
								JOINT RThumb
								{
									OFFSET 0.000000 0.000000 0.000000
									CHANNELS 3 Zrotation Yrotation Xrotation
									End Site
									{
										OFFSET 0.000000 0.000000 0.000000
									}
								}
							}
						}
					}
				}
			}
		}
	}
}
MOTION
Frames: 12
Frame Time: 0.008333
8.555793 6.172586 14.603933 5.271711 3.694892 11.782334 0.512228 -3.679889 -6.025843 -6.075958 20.590554 -121.197077 2.786473 5.998179 22.751017 43.869454 28.129316 166.188760 3.243700 11.079500 32.548400 1.709768 2.229053 -1.479648 2.876043 -17.641495 -128.481697 -0.428891 -4.025988 14.522999 -36.635363 -0.147611 142.628868 -0.104600 2.085400 -5.741700 2.174818 0.706441 48.963743 -0.987082 0.830368 2.526580 -9.408104 1.271875 -2.907896 3.107511 13.568959 -5.082711 -18.096574 17.855880 -20.773091 -7.673900 9.743100 -5.485100 -0.328116 -7.821417 3.572660 -92.003755 -51.694969 69.180426 21.628295 -27.015015 -6.398202 1.003383 0.194603 5.276096 58.940608 -30.598828 -40.373600 -7.125000 0.000000 0.000000 13.789000 -18.645800 -17.891200 -0.206134 9.690680 6.247610 73.150500 54.258682 19.712780 -29.340439 29.260232 -11.880089 3.390269 1.758135 16.766512 -35.804722 -58.581026 34.129700 7.125000 0.000000 0.000000 128.278300 83.212000 133.821500 
8.551509 6.124362 14.658335 5.250109 4.072903 11.503821 0.500453 -3.704757 -6.049958 -5.714478 20.321004 -120.792496 2.723349 5.865868 22.316961 43.899603 28.352769 166.007814 3.239300 11.072700 32.525600 1.729290 2.210263 -1.467209 3.081949 -17.720559 -128.200043 -0.350165 -3.819943 13.901452 -36.525969 0.144030 141.822400 -0.127000 2.297100 -6.327500 2.598791 0.636257 49.040213 -0.997146 0.909875 2.570096 -9.677573 1.335284 -2.815746 3.249058 13.826490 -4.943181 -18.085295 18.250387 -20.478605 -7.668600 9.920200 -5.358100 -0.332212 -7.800092 3.536709 -92.527072 -51.377165 70.090152 21.698690 -27.159099 -6.424626 0.998329 0.175658 5.419406 59.035174 -30.748931 -40.579000 -7.125000 0.000000 0.000000 13.794000 -18.855200 -17.928400 -0.197846 9.673688 6.347647 73.490276 54.508427 18.781423 -29.069117 29.025095 -11.751190 3.411743 1.764817 16.799604 -36.309902 -58.607677 34.624100 7.125000 0.000000 0.000000 130.243200 83.222200 135.631100 
8.551111 6.094371 14.705065 5.253183 4.440536 11.288450 0.486135 -3.732383 -6.074726 -5.386817 19.969556 -120.346197 2.677688 5.778019 22.024474 43.900003 28.415124 165.871117 3.139800 10.918000 32.003700 1.750058 2.196990 -1.460128 3.327058 -17.876353 -127.954876 -0.292583 -3.672364 13.454077 -36.444634 0.488012 141.137693 -0.150900 2.503100 -6.898300 2.993410 0.536432 49.052957 -1.018913 0.935369 2.634307 -9.943127 1.378911 -2.661966 3.404327 13.995610 -4.877865 -17.927763 18.535174 -20.103924 -7.611500 10.028200 -5.222100 -0.333370 -7.765498 3.513746 -93.055600 -51.268147 70.941870 21.653897 -27.162736 -6.401465 0.992484 0.161680 5.525678 59.108342 -30.910610 -40.775600 -7.125000 0.000000 0.000000 13.781900 -19.070300 -17.943100 -0.191948 9.644842 6.458055 73.803191 54.847958 18.010080 -28.927483 28.900139 -11.698535 3.420546 1.808217 16.481123 -37.195075 -58.794149 35.517300 7.125000 0.000000 0.000000 134.017700 83.091000 139.207700 
8.553701 6.081618 14.745417 5.295804 4.720818 11.146994 0.475114 -3.755997 -6.099308 -5.103293 19.641878 -119.882294 2.642128 5.711514 21.803825 43.901062 28.422741 165.822428 2.998300 10.692200 31.248800 1.767744 2.189665 -1.457571 3.503747 -18.060521 -127.723618 -0.255060 -3.581595 13.175364 -36.400458 0.840821 140.650612 -0.181100 2.741300 -7.559300 3.273416 0.459492 48.992374 -1.049843 0.939967 2.714046 -10.160894 1.413502 -2.462531 3.536159 14.083669 -4.855935 -17.660157 18.711259 -19.694508 -7.515000 10.075600 -5.096700 -0.332637 -7.727244 3.504029 -93.559244 -51.307199 71.636510 21.522515 -27.059247 -6.341477 0.986463 0.151905 5.616556 59.155979 -31.076780 -40.952400 -7.125000 0.000000 0.000000 13.753400 -19.279500 -17.934100 -0.190028 9.609285 6.555537 74.116872 55.151771 17.454051 -28.988694 28.970690 -11.754210 3.408721 1.875082 15.922736 -38.390495 -59.090106 36.728500 7.125000 0.000000 0.000000 138.864200 82.817400 143.821800 
8.560576 6.085404 14.778995 5.379694 4.951929 11.095323 0.459525 -3.777323 -6.118275 -4.934108 19.250689 -119.497205 2.621310 5.705839 21.753352 43.793342 28.143528 165.473264 2.669400 10.139700 29.430200 1.783113 2.189020 -1.461744 3.586951 -18.308937 -127.523340 -0.234707 -3.547622 13.065470 -36.414671 1.278000 140.411632 -0.231200 3.094800 -8.542700 3.475839 0.380533 48.849500 -1.086940 0.908104 2.807066 -10.337949 1.432278 -2.223943 3.634872 14.095265 -4.866513 -17.323587 18.779789 -19.293212 -7.394800 10.068600 -4.993100 -0.331577 -7.690045 3.506884 -94.023525 -51.454440 72.173227 21.318998 -26.865340 -6.251767 0.979932 0.145433 5.708739 59.219673 -31.231945 -41.143400 -7.125000 0.000000 0.000000 13.735000 -19.493700 -17.939300 -0.192203 9.571656 6.629121 74.413355 55.370303 17.093874 -29.241251 29.227263 -11.910919 3.379042 1.948809 15.352003 -39.672819 -59.482095 38.044200 7.125000 0.000000 0.000000 143.611200 82.390900 148.372500 
8.568746 6.104933 14.806794 5.445532 5.036636 11.105069 0.454000 -3.789984 -6.135824 -4.754463 19.009999 -119.102485 2.614035 5.707377 21.751629 43.756218 27.950476 165.474897 2.512700 9.861000 28.527900 1.787246 2.192309 -1.469536 3.513057 -18.518097 -127.240663 -0.239107 -3.566029 13.117754 -36.457596 1.494172 140.483701 -0.266600 3.321400 -9.174900 3.523965 0.357947 48.671931 -1.106733 0.892697 2.905570 -10.395440 1.450738 -1.973940 3.625121 14.057311 -4.901759 -16.963648 18.768308 -18.940161 -7.257600 10.030500 -4.924900 -0.328123 -7.661859 3.522098 -94.457685 -51.688752 72.453185 21.053706 -26.596291 -6.137812 0.972973 0.141735 5.839747 59.298293 -31.363315 -41.337400 -7.125000 0.000000 0.000000 13.731200 -19.698000 -17.962700 -0.195046 9.532064 6.676214 74.605754 55.527495 16.988411 -29.591508 29.567104 -12.122520 3.342034 2.022656 14.962764 -40.709676 -60.025690 39.162500 7.125000 0.000000 0.000000 147.039800 81.798500 151.773000 
8.578710 6.139307 14.828315 5.464515 5.040909 11.166552 0.452651 -3.799810 -6.149813 -4.580694 18.832804 -118.733329 2.623230 5.739085 21.856102 43.724654 27.696483 165.609827 2.400200 9.654200 27.863900 1.782848 2.196679 -1.480788 3.316569 -18.722749 -126.875676 -0.265135 -3.629485 13.311131 -36.532014 1.533977 140.853614 -0.292800 3.479600 -9.617000 3.532663 0.349605 48.493642 -1.119592 0.881616 2.999918 -10.417220 1.467450 -1.736524 3.586491 13.954120 -4.959193 -16.622608 18.658461 -18.643718 -7.128100 9.949400 -4.882800 -0.324793 -7.638880 3.540937 -94.864047 -51.945291 72.503746 20.774975 -26.308564 -6.019504 0.966436 0.139300 6.051599 59.338708 -31.460476 -41.464000 -7.125000 0.000000 0.000000 13.720000 -19.838800 -17.967000 -0.196694 9.498607 6.706936 74.633475 55.669846 16.996190 -29.909361 29.857086 -12.323580 3.311402 2.089968 14.903961 -41.244394 -60.735884 39.837700 7.125000 0.000000 0.000000 148.567800 81.094800 153.521700 
8.588674 6.187033 14.844157 5.407778 4.929530 11.258640 0.458233 -3.803436 -6.160113 -4.373378 18.798129 -118.360391 2.642023 5.781923 22.009238 43.701827 27.420750 165.837775 2.292400 9.450200 27.214200 1.769099 2.199442 -1.493561 2.984515 -18.867070 -126.371821 -0.317092 -3.734929 13.638837 -36.611296 1.231474 141.506296 -0.286100 3.439900 -9.506000 3.492412 0.375351 48.346828 -1.125610 0.896754 3.086846 -10.403858 1.491477 -1.520128 3.519074 13.788053 -5.038254 -16.321044 18.450924 -18.431208 -7.015400 9.827300 -4.873600 -0.320393 -7.616779 3.563931 -95.221351 -52.277237 72.449978 20.452996 -25.961659 -5.884698 0.959551 0.140826 6.215740 59.373647 -31.528284 -41.565400 -7.125000 0.000000 0.000000 13.715600 -19.947400 -17.976000 -0.195161 9.467978 6.736823 74.463445 55.885120 17.098546 -30.094158 29.992054 -12.457965 3.296801 2.151008 15.145278 -41.210035 -61.567713 39.990400 7.125000 0.000000 0.000000 148.450500 80.357700 153.860100 
8.597143 6.246716 14.853623 5.263024 4.674859 11.365451 0.470263 -3.797299 -6.165013 -4.146538 18.932133 -117.979712 2.664945 5.833556 22.192044 43.648210 27.070136 165.960944 2.101500 9.074500 26.028600 1.746412 2.198876 -1.507228 2.586931 -18.839743 -125.760928 -0.388289 -3.884713 14.095743 -36.703184 0.768891 142.359980 -0.266400 3.320100 -9.171200 3.386243 0.449646 48.260625 -1.126878 0.950397 3.163769 -10.354650 1.528003 -1.330823 3.408739 13.561060 -5.150428 -16.047916 18.148227 -18.311984 -6.914500 9.664700 -4.901700 -0.314102 -7.590238 3.587169 -95.514540 -52.705728 72.295660 20.097158 -25.565750 -5.738398 0.952821 0.145772 6.326274 59.386189 -31.585775 -41.636500 -7.125000 0.000000 0.000000 13.702400 -20.032600 -17.969700 -0.188453 9.433553 6.790856 74.071136 56.301132 17.300439 -30.030743 29.848242 -12.458580 3.308772 2.210150 15.506150 -40.708555 -62.391672 39.694200 7.125000 0.000000 0.000000 147.346300 79.692600 153.334500 
8.601527 6.317159 14.856911 5.024641 4.214045 11.475214 0.493544 -3.775344 -6.164401 -3.884355 19.329957 -117.553642 2.687946 5.873109 22.345449 43.601984 26.783143 166.035644 1.887200 8.627000 24.635400 1.714121 2.193679 -1.519541 2.168687 -18.509804 -125.068052 -0.472537 -4.076202 14.663127 -36.804128 0.255378 143.321023 -0.244100 3.179400 -8.778500 3.150871 0.615389 48.258774 -1.126032 1.071869 3.223698 -10.248692 1.586104 -1.183309 3.235918 13.277733 -5.304217 -15.767387 17.757190 -18.283550 -6.810400 9.463400 -4.970000 -0.303844 -7.554925 3.607159 -95.700561 -53.242534 72.050455 19.711171 -25.122220 -5.583998 0.946555 0.153466 6.365704 59.408906 -31.658146 -41.733400 -7.125000 0.000000 0.000000 13.687000 -20.146400 -17.964200 -0.177775 9.386615 6.886279 73.581982 56.962925 17.615315 -29.727168 29.437322 -12.323838 3.349589 2.260514 15.852306 -40.043781 -63.013227 39.206000 7.125000 0.000000 0.000000 146.076800 79.222800 152.570400 
8.604018 6.396071 14.854619 4.728778 3.634021 11.618814 0.517870 -3.742317 -6.155136 -3.665207 19.842299 -117.161458 2.716723 5.935600 22.557812 43.493096 26.399100 165.815003 1.549000 7.855700 22.276700 1.677834 2.187191 -1.531833 1.787117 -17.964383 -124.390935 -0.562527 -4.298139 15.307162 -36.917845 -0.165035 144.305308 -0.237100 3.133500 -8.650600 2.820018 0.818352 48.284973 -1.119005 1.206151 3.263986 -10.080306 1.640894 -1.069474 2.966591 12.939695 -5.487273 -15.439410 17.280745 -18.346076 -6.685300 9.224600 -5.088300 -0.289979 -7.512797 3.624980 -95.728636 -53.891884 71.748852 19.290272 -24.619714 -5.421824 0.940506 0.164268 6.265605 59.495743 -31.767269 -41.934600 -7.125000 0.000000 0.000000 13.687200 -20.353300 -17.992600 -0.165227 9.322286 7.022375 73.078608 57.837374 18.136504 -29.208412 28.789255 -12.065138 3.418592 2.300756 16.000762 -39.562922 -63.278254 38.838700 7.125000 0.000000 0.000000 145.259200 79.044700 152.005200 
8.605014 6.481061 14.849139 4.398893 2.928268 11.802776 0.550021 -3.699174 -6.141318 -3.465275 20.509844 -116.770151 2.753123 5.996194 22.775458 43.429975 26.166795 165.700664 1.305700 7.238600 20.424300 1.637377 2.180019 -1.542856 1.401104 -17.249360 -123.719854 -0.660837 -4.550651 16.031128 -37.038327 -0.523545 145.304427 -0.243600 3.176100 -8.769500 2.385342 1.075433 48.305192 -1.115935 1.367031 3.288946 -9.870949 1.700775 -0.971648 2.616984 12.522156 -5.715962 -15.011431 16.692387 -18.477538 -6.520400 8.929900 -5.251600 -0.273304 -7.462233 3.639460 -95.563605 -54.633811 71.482171 18.846974 -24.068536 -5.258536 0.934763 0.178151 5.965320 59.666970 -31.930696 -42.276100 -7.125000 0.000000 0.000000 13.705800 -20.687500 -18.063200 -0.152215 9.239016 7.196764 72.623286 58.873759 18.839504 -28.533592 27.966689 -11.719268 3.510669 2.331211 15.903398 -39.361083 -63.174114 38.683900 7.125000 0.000000 0.000000 144.954600 79.165200 151.670800 
